<svg width="44" height="44" viewBox="0 0 44 44" fill="none" xmlns="http://www.w3.org/2000/svg">
<rect x="0.5" y="0.750916" width="43" height="42.4981" rx="21.249" fill="#EF2779"/>
<path d="M20.524 29.8684C22.0227 29.246 21.6943 27.53 20.9366 26.4453C20.1873 25.3339 19.1517 24.5692 18.1077 23.8312C17.3628 23.3354 16.6977 22.7171 16.1376 21.9997C15.9018 21.7063 15.4219 21.1639 15.9102 21.0572C16.407 20.9505 17.2657 21.4662 17.7035 21.6618C18.4697 21.9997 19.2274 22.3909 19.9347 22.8532L20.785 21.3417C19.4716 20.4259 17.7877 19.6168 16.2217 19.3768C15.3293 19.2345 14.3863 19.4301 14.0832 20.4526C13.8138 21.3328 14.2432 22.2219 14.7315 22.9155C15.885 24.5425 17.6783 25.325 19.017 26.7298C19.3032 27.0232 19.6484 27.3699 19.8168 27.7789C19.9936 28.1702 19.9515 28.1968 19.5558 28.1968C18.5118 28.1968 17.2068 27.3344 16.3565 26.7653L15.5061 28.2768C16.7943 29.1126 18.9496 30.4196 20.524 29.8684ZM29.8611 15.9981C30.0463 15.8025 30.0463 15.4824 29.8611 15.2957L28.7666 14.1398C28.6784 14.0501 28.5607 13.9999 28.4382 13.9999C28.3157 13.9999 28.198 14.0501 28.1099 14.1398L27.2511 15.0467L29.0023 16.8961L29.8611 15.9981ZM21.5764 21.0394V22.8888H23.3277L28.5056 17.4207L26.7543 15.5713L21.5764 21.0394Z" fill="white"/>
</svg>
