<svg width="44" height="44" viewBox="0 0 44 44" fill="none" xmlns="http://www.w3.org/2000/svg">
<rect x="0.5" y="0.499939" width="43" height="43" rx="21.5" fill="#EF2779"/>
<path d="M18.0927 23.2387L20.7239 20.6075L14.9687 14.8616C14.5224 14.4153 13.7507 14.5361 13.4718 15.1126C12.8116 16.4979 13.0534 18.1994 14.197 19.3523L18.0927 23.2387ZM24.3964 21.5558C25.8189 22.2159 27.8179 21.7511 29.2962 20.2727C31.0721 18.4969 31.4161 15.9494 30.0493 14.5826C28.6919 13.2252 26.1443 13.5599 24.3592 15.3357C22.8809 16.814 22.416 18.813 23.0761 20.2356L14.6526 28.6591C14.4787 28.833 14.381 29.0688 14.381 29.3146C14.381 29.5605 14.4787 29.7963 14.6526 29.9701C14.8264 30.1439 15.0622 30.2416 15.308 30.2416C15.5539 30.2416 15.7897 30.1439 15.9635 29.9701L21.7187 24.2335L27.4646 29.9794C27.5507 30.0655 27.6529 30.1338 27.7653 30.1803C27.8778 30.2269 27.9983 30.2509 28.1201 30.2509C28.2418 30.2509 28.3624 30.2269 28.4748 30.1803C28.5873 30.1338 28.6895 30.0655 28.7756 29.9794C28.8616 29.8933 28.9299 29.7911 28.9765 29.6787C29.0231 29.5662 29.0471 29.4457 29.0471 29.3239C29.0471 29.2022 29.0231 29.0816 28.9765 28.9692C28.9299 28.8567 28.8616 28.7545 28.7756 28.6684L23.0297 22.9225L24.3964 21.5558Z" fill="white"/>
</svg>
