<svg width="44" height="44" viewBox="0 0 44 44" fill="none" xmlns="http://www.w3.org/2000/svg">
<rect x="0.5" y="0.250916" width="43" height="43.4981" rx="21.5" fill="#EF2779"/>
<path d="M18.5 13.4999C19.9587 13.4999 21.3576 14.0472 22.3891 15.0214C23.4205 15.9955 24 17.3167 24 18.6944C24 19.9505 23.53 21.1027 22.74 21.9999H31V30.4999H22V22.6988C21.05 23.4449 19.83 23.8888 18.5 23.8888C17.0413 23.8888 15.6424 23.3416 14.6109 22.3674C13.5795 21.3933 13 20.072 13 18.6944C13 17.3167 13.5795 15.9955 14.6109 15.0214C15.6424 14.0472 17.0413 13.4999 18.5 13.4999Z" fill="white"/>
</svg>
